<mxfile host="app.diagrams.net" modified="2023-08-30T07:21:06.144Z" agent="Mozilla/5.0 (Macintosh; Intel Mac OS X 10_15_7) AppleWebKit/537.36 (KHTML, like Gecko) Chrome/116.0.0.0 Safari/537.36" etag="FYRh851WbIwsyISZHypz" version="21.6.9" type="github">
  <diagram name="Page-1" id="e7e014a7-5840-1c2e-5031-d8a46d1fe8dd">
    <mxGraphModel dx="1546" dy="830" grid="1" gridSize="10" guides="1" tooltips="1" connect="1" arrows="1" fold="1" page="1" pageScale="1" pageWidth="1169" pageHeight="826" background="none" math="0" shadow="0">
      <root>
        <mxCell id="0" />
        <mxCell id="1" parent="0" />
        <mxCell id="13" value="" style="ellipse;shape=startState;fillColor=#000000;strokeColor=#ff0000;" parent="1" vertex="1">
          <mxGeometry x="375" y="60" width="30" height="30" as="geometry" />
        </mxCell>
        <mxCell id="14" value="" style="edgeStyle=elbowEdgeStyle;elbow=horizontal;verticalAlign=bottom;endArrow=open;endSize=8;strokeColor=#FF0000;endFill=1;rounded=0" parent="1" source="13" target="15" edge="1">
          <mxGeometry x="484.5" y="148" as="geometry">
            <mxPoint x="370" y="110" as="targetPoint" />
          </mxGeometry>
        </mxCell>
        <mxCell id="15" value="创建Options" style="" parent="1" vertex="1">
          <mxGeometry x="335" y="130" width="110" height="50" as="geometry" />
        </mxCell>
        <mxCell id="16" value="构建应用框架" style="" parent="1" vertex="1">
          <mxGeometry x="240" y="300" width="110" height="50" as="geometry" />
        </mxCell>
        <mxCell id="17" value="" style="endArrow=open;strokeColor=#FF0000;endFill=1;rounded=0" parent="1" source="15" edge="1">
          <mxGeometry relative="1" as="geometry">
            <mxPoint x="390" y="220" as="targetPoint" />
          </mxGeometry>
        </mxCell>
        <mxCell id="RUCin9vjuSznjQ9_x9mI-43" value="" style="shape=line;html=1;strokeWidth=6;strokeColor=#ff0000;" vertex="1" parent="1">
          <mxGeometry x="330" y="220" width="110" height="10" as="geometry" />
        </mxCell>
        <mxCell id="RUCin9vjuSznjQ9_x9mI-45" value="创建组件配置" style="" vertex="1" parent="1">
          <mxGeometry x="405" y="300" width="110" height="50" as="geometry" />
        </mxCell>
        <mxCell id="RUCin9vjuSznjQ9_x9mI-46" value="" style="endArrow=open;strokeColor=#FF0000;endFill=1;rounded=0;entryX=0.75;entryY=0;entryDx=0;entryDy=0;exitX=0.518;exitY=0.6;exitDx=0;exitDy=0;exitPerimeter=0;" edge="1" parent="1" source="RUCin9vjuSznjQ9_x9mI-43" target="16">
          <mxGeometry relative="1" as="geometry">
            <mxPoint x="400" y="190" as="sourcePoint" />
            <mxPoint x="400" y="230" as="targetPoint" />
          </mxGeometry>
        </mxCell>
        <mxCell id="RUCin9vjuSznjQ9_x9mI-47" value="" style="endArrow=open;strokeColor=#FF0000;endFill=1;rounded=0;entryX=0.5;entryY=0;entryDx=0;entryDy=0;exitX=0.555;exitY=0.8;exitDx=0;exitDy=0;exitPerimeter=0;" edge="1" parent="1" source="RUCin9vjuSznjQ9_x9mI-43" target="RUCin9vjuSznjQ9_x9mI-45">
          <mxGeometry relative="1" as="geometry">
            <mxPoint x="410" y="200" as="sourcePoint" />
            <mxPoint x="410" y="240" as="targetPoint" />
          </mxGeometry>
        </mxCell>
        <mxCell id="RUCin9vjuSznjQ9_x9mI-48" value="" style="endArrow=open;strokeColor=#FF0000;endFill=1;rounded=0;exitX=1;exitY=0.5;exitDx=0;exitDy=0;entryX=0;entryY=0.5;entryDx=0;entryDy=0;" edge="1" parent="1" source="16" target="RUCin9vjuSznjQ9_x9mI-45">
          <mxGeometry relative="1" as="geometry">
            <mxPoint x="420" y="210" as="sourcePoint" />
            <mxPoint x="420" y="250" as="targetPoint" />
          </mxGeometry>
        </mxCell>
        <mxCell id="RUCin9vjuSznjQ9_x9mI-49" value="" style="endArrow=open;strokeColor=#FF0000;endFill=1;rounded=0;exitX=0.5;exitY=1;exitDx=0;exitDy=0;" edge="1" parent="1" source="RUCin9vjuSznjQ9_x9mI-45">
          <mxGeometry relative="1" as="geometry">
            <mxPoint x="400" y="190" as="sourcePoint" />
            <mxPoint x="460" y="430" as="targetPoint" />
          </mxGeometry>
        </mxCell>
        <mxCell id="RUCin9vjuSznjQ9_x9mI-50" value="" style="shape=line;html=1;strokeWidth=6;strokeColor=#ff0000;" vertex="1" parent="1">
          <mxGeometry x="405" y="430" width="110" height="10" as="geometry" />
        </mxCell>
        <mxCell id="RUCin9vjuSznjQ9_x9mI-51" value="" style="endArrow=open;strokeColor=#FF0000;endFill=1;rounded=0;exitX=0.482;exitY=0.1;exitDx=0;exitDy=0;exitPerimeter=0;" edge="1" parent="1" source="RUCin9vjuSznjQ9_x9mI-50">
          <mxGeometry relative="1" as="geometry">
            <mxPoint x="470" y="360" as="sourcePoint" />
            <mxPoint x="420" y="500" as="targetPoint" />
          </mxGeometry>
        </mxCell>
        <mxCell id="RUCin9vjuSznjQ9_x9mI-52" value="" style="endArrow=open;strokeColor=#FF0000;endFill=1;rounded=0;exitX=0.509;exitY=0.9;exitDx=0;exitDy=0;exitPerimeter=0;" edge="1" parent="1" source="RUCin9vjuSznjQ9_x9mI-50">
          <mxGeometry relative="1" as="geometry">
            <mxPoint x="480" y="370" as="sourcePoint" />
            <mxPoint x="500" y="500" as="targetPoint" />
          </mxGeometry>
        </mxCell>
        <mxCell id="RUCin9vjuSznjQ9_x9mI-53" value="创建REST API Server配置" style="" vertex="1" parent="1">
          <mxGeometry x="310" y="500" width="150" height="60" as="geometry" />
        </mxCell>
        <mxCell id="RUCin9vjuSznjQ9_x9mI-54" value="创建GRPC API Server配置" style="" vertex="1" parent="1">
          <mxGeometry x="470" y="500" width="150" height="60" as="geometry" />
        </mxCell>
        <mxCell id="RUCin9vjuSznjQ9_x9mI-55" value="" style="endArrow=open;strokeColor=#FF0000;endFill=1;rounded=0;exitX=0.5;exitY=1;exitDx=0;exitDy=0;" edge="1" parent="1" source="RUCin9vjuSznjQ9_x9mI-53">
          <mxGeometry relative="1" as="geometry">
            <mxPoint x="468" y="441" as="sourcePoint" />
            <mxPoint x="450" y="610" as="targetPoint" />
          </mxGeometry>
        </mxCell>
        <mxCell id="RUCin9vjuSznjQ9_x9mI-56" value="" style="endArrow=open;strokeColor=#FF0000;endFill=1;rounded=0;exitX=0.5;exitY=1;exitDx=0;exitDy=0;" edge="1" parent="1" source="RUCin9vjuSznjQ9_x9mI-54">
          <mxGeometry relative="1" as="geometry">
            <mxPoint x="478" y="451" as="sourcePoint" />
            <mxPoint x="450" y="610" as="targetPoint" />
          </mxGeometry>
        </mxCell>
        <mxCell id="RUCin9vjuSznjQ9_x9mI-57" value="" style="shape=line;html=1;strokeWidth=6;strokeColor=#ff0000;" vertex="1" parent="1">
          <mxGeometry x="400" y="610" width="110" height="10" as="geometry" />
        </mxCell>
        <mxCell id="RUCin9vjuSznjQ9_x9mI-58" value="" style="endArrow=open;strokeColor=#FF0000;endFill=1;rounded=0;exitX=0.5;exitY=1;exitDx=0;exitDy=0;" edge="1" parent="1">
          <mxGeometry relative="1" as="geometry">
            <mxPoint x="454.5" y="620" as="sourcePoint" />
            <mxPoint x="455" y="670" as="targetPoint" />
          </mxGeometry>
        </mxCell>
        <mxCell id="RUCin9vjuSznjQ9_x9mI-59" value="配置补全" style="" vertex="1" parent="1">
          <mxGeometry x="400" y="670" width="110" height="50" as="geometry" />
        </mxCell>
        <mxCell id="RUCin9vjuSznjQ9_x9mI-60" value="" style="endArrow=open;strokeColor=#FF0000;endFill=1;rounded=0;exitX=0.5;exitY=1;exitDx=0;exitDy=0;" edge="1" parent="1">
          <mxGeometry relative="1" as="geometry">
            <mxPoint x="454.5" y="720" as="sourcePoint" />
            <mxPoint x="455" y="770" as="targetPoint" />
          </mxGeometry>
        </mxCell>
        <mxCell id="RUCin9vjuSznjQ9_x9mI-61" value="创建服务实例" style="" vertex="1" parent="1">
          <mxGeometry x="400" y="770" width="110" height="50" as="geometry" />
        </mxCell>
        <mxCell id="RUCin9vjuSznjQ9_x9mI-63" value="PrepareRun" style="" vertex="1" parent="1">
          <mxGeometry x="400" y="850" width="110" height="50" as="geometry" />
        </mxCell>
        <mxCell id="RUCin9vjuSznjQ9_x9mI-64" value="" style="endArrow=open;strokeColor=#FF0000;endFill=1;rounded=0;exitX=0.5;exitY=1;exitDx=0;exitDy=0;" edge="1" parent="1">
          <mxGeometry relative="1" as="geometry">
            <mxPoint x="454.5" y="820" as="sourcePoint" />
            <mxPoint x="455" y="850" as="targetPoint" />
          </mxGeometry>
        </mxCell>
        <mxCell id="RUCin9vjuSznjQ9_x9mI-65" value="Run" style="" vertex="1" parent="1">
          <mxGeometry x="400" y="920" width="110" height="50" as="geometry" />
        </mxCell>
      </root>
    </mxGraphModel>
  </diagram>
</mxfile>
